<?xml version="1.0" encoding="UTF-8"?><svg id="_이어_1" xmlns="http://www.w3.org/2000/svg" viewBox="0 0 56.69 56.69"><defs><style>.cls-1{fill:#727171;}</style></defs><g><path class="cls-1" d="M28.35,18.32c-.37,0-.66-.3-.66-.67V6.44c0-.37,.3-.67,.66-.67s.66,.3,.66,.67v11.21c0,.37-.3,.67-.66,.67Z"/><path class="cls-1" d="M28.35,29.08c-6.09,0-11.04-4.95-11.04-11.05,0-4.89,3.15-9.13,7.83-10.55,.36-.11,.72,.09,.83,.44,.11,.35-.09,.72-.44,.83-4.12,1.25-6.89,4.98-6.89,9.28,0,5.36,4.36,9.71,9.71,9.71s9.71-4.36,9.71-9.71c0-4.3-2.77-8.03-6.89-9.28-.35-.11-.55-.48-.44-.83,.11-.35,.48-.55,.83-.44,4.69,1.42,7.84,5.66,7.84,10.55,0,6.09-4.95,11.05-11.04,11.05Z"/></g><g><path class="cls-1" d="M21.31,43.15v-1.25h1.76v1.25h5.08v1.44h-11.93v-1.44h5.08Zm-3.54-5.75h8.85v1.44h-3.54v.04c0,.27,.07,.49,.2,.67s.38,.33,.73,.47c.53,.21,1.05,.41,1.57,.59,.51,.18,1.05,.36,1.6,.53l-.55,1.4c-.59-.2-1.12-.38-1.61-.56-.49-.18-.96-.35-1.43-.53-.81-.31-1.27-.57-1.37-.78h-.01c-.11,.22-.58,.49-1.4,.81-.47,.18-.94,.35-1.43,.53-.49,.18-1.02,.36-1.61,.56l-.56-1.43c.55-.18,1.08-.35,1.6-.53,.51-.18,1.04-.37,1.57-.59,.35-.14,.6-.3,.74-.47,.14-.17,.2-.39,.2-.67v-.04h-3.54v-1.44Zm4.42,12.98c-.57,0-1.11-.05-1.62-.15-.51-.1-.95-.25-1.34-.44-.38-.2-.69-.44-.91-.74-.22-.3-.34-.65-.34-1.05v-.42c0-.4,.11-.75,.34-1.05,.22-.3,.53-.55,.91-.74,.38-.2,.83-.34,1.34-.44s1.05-.15,1.62-.15,1.11,.05,1.62,.15,.95,.25,1.34,.44c.38,.2,.69,.44,.91,.74,.22,.3,.34,.65,.34,1.05v.42c0,.4-.11,.75-.34,1.05s-.53,.55-.91,.74c-.38,.2-.83,.34-1.34,.44-.51,.1-1.05,.15-1.62,.15Zm0-3.75c-.31,0-.61,.03-.9,.08-.29,.05-.56,.12-.78,.22-.23,.09-.41,.21-.55,.34-.14,.13-.21,.28-.21,.43v.2c0,.16,.07,.3,.21,.43,.14,.13,.32,.24,.55,.34,.23,.09,.49,.17,.78,.22,.29,.05,.6,.08,.9,.08s.61-.03,.9-.08c.29-.05,.56-.12,.78-.22,.23-.09,.41-.21,.55-.34,.14-.13,.21-.28,.21-.43v-.2c0-.16-.07-.3-.21-.43-.14-.13-.32-.24-.55-.34-.23-.09-.49-.17-.78-.22-.29-.05-.59-.08-.9-.08Z"/><path class="cls-1" d="M37.74,44.97v1.9h3.15v1.47h-11.93v-1.47h3.29v-1.9h-1.71v-4.28h6.89v-1.32h-6.93v-1.48h8.69v4.28h-6.89v1.32h7.21v1.48h-1.78Zm-3.75,1.9h2.02v-1.9h-2.02v1.9Z"/></g></svg>