<svg id="레이어_1" data-name="레이어 1" xmlns="http://www.w3.org/2000/svg" viewBox="0 0 56.69 56.69"><defs><style>.cls-1{fill:#727171;}</style></defs><path class="cls-1" d="M28.35,33.65a5.31,5.31,0,1,1,5.3-5.3A5.31,5.31,0,0,1,28.35,33.65Zm0-9.13a3.83,3.83,0,1,0,3.83,3.83A3.82,3.82,0,0,0,28.35,24.52Z"/><path class="cls-1" d="M30.49,41.05H26.21a.75.75,0,0,1-.74-.66l-.32-3a9.46,9.46,0,0,1-3-1.74l-2.8,1.25a.74.74,0,0,1-.94-.31l-2.14-3.71a.73.73,0,0,1,.2-1L19,30.08a9.47,9.47,0,0,1-.17-1.73A9.3,9.3,0,0,1,19,26.62l-2.48-1.8a.75.75,0,0,1-.2-1l2.14-3.71a.75.75,0,0,1,.94-.3l2.8,1.24a9.46,9.46,0,0,1,3-1.74l.32-3a.74.74,0,0,1,.74-.66h4.28a.73.73,0,0,1,.73.66l.32,3a9.62,9.62,0,0,1,3,1.74l2.8-1.24a.75.75,0,0,1,.94.3l2.14,3.71a.75.75,0,0,1-.21,1l-2.47,1.8a9.28,9.28,0,0,1,.16,1.73,9.44,9.44,0,0,1-.16,1.73l2.47,1.8a.74.74,0,0,1,.21,1l-2.14,3.71a.74.74,0,0,1-.94.31l-2.8-1.25a9.62,9.62,0,0,1-3,1.74l-.32,3A.74.74,0,0,1,30.49,41.05Zm-3.62-1.48h2.95l.31-2.85a.72.72,0,0,1,.52-.63,8.15,8.15,0,0,0,3.24-1.88.74.74,0,0,1,.81-.14l2.63,1.17,1.47-2.56L36.48,31a.74.74,0,0,1-.28-.77,7.76,7.76,0,0,0,0-3.75.72.72,0,0,1,.28-.76L38.8,24l-1.47-2.55L34.7,22.62a.74.74,0,0,1-.81-.14,8,8,0,0,0-3.24-1.87.74.74,0,0,1-.52-.63l-.31-2.86H26.87L26.57,20a.75.75,0,0,1-.53.63,8,8,0,0,0-3.24,1.87.73.73,0,0,1-.81.14l-2.62-1.16L17.89,24l2.32,1.7a.73.73,0,0,1,.29.76,7.73,7.73,0,0,0-.23,1.88,7.59,7.59,0,0,0,.23,1.87.75.75,0,0,1-.29.77l-2.32,1.69,1.48,2.56L22,34.07a.73.73,0,0,1,.81.14A8.15,8.15,0,0,0,26,36.09a.73.73,0,0,1,.53.63Z"/></svg>