<?xml version="1.0" encoding="UTF-8"?><svg id="_이어_1" xmlns="http://www.w3.org/2000/svg" viewBox="0 0 56.69 56.69"><defs><style>.cls-1{fill:#fff;}.cls-2{fill:#727171;}</style></defs><g><g><rect class="cls-2" x="15.78" y="13.85" width="24.81" height="1.29"/><rect class="cls-2" x="15.78" y="21.93" width="24.81" height="1.29"/></g><g><rect class="cls-2" x="23.28" y="6.1" width="1.29" height="24.87"/><rect class="cls-2" x="31.81" y="6.1" width="1.29" height="24.87"/></g><g><g><path class="cls-1" d="M37.23,17.31c0-2.74-2.2-4.97-4.92-4.97s-4.92,2.22-4.92,4.97c0,.92,.15,1.42,.39,2.21,.8,2.55,4.89,6.04,4.52,5.81-.37,.24,3.72-3.26,4.52-5.8,.25-.79,.4-1.29,.4-2.22Z"/><path class="cls-2" d="M32.29,25.97c-.19,0-.39-.08-.51-.24-.04-.05-.07-.09-.09-.14l-.11-.1c-1.6-1.55-3.8-3.83-4.41-5.78-.24-.76-.42-1.36-.42-2.4,0-3.09,2.5-5.61,5.56-5.61s5.56,2.52,5.56,5.61c0,1-.16,1.57-.43,2.41-.61,1.94-2.81,4.22-4.41,5.77-.04,.04-.08,.07-.11,.1-.02,.04-.05,.09-.09,.14-.13,.16-.33,.23-.53,.24h-.02Zm.02-12.98c-2.36,0-4.27,1.94-4.27,4.32,0,.81,.12,1.22,.37,2.01,.55,1.75,2.91,4.11,3.91,5.08,1-.97,3.36-3.32,3.91-5.07,.25-.79,.37-1.21,.37-2.02,0-2.38-1.92-4.32-4.28-4.32Z"/></g><g><path class="cls-1" d="M34.3,17.34c0,1.08-.88,1.95-1.97,1.95s-1.97-.87-1.97-1.95,.88-1.95,1.97-1.95,1.97,.87,1.97,1.95Z"/><path class="cls-2" d="M32.33,19.93c-1.44,0-2.61-1.16-2.61-2.59s1.17-2.59,2.61-2.59,2.61,1.16,2.61,2.59-1.17,2.59-2.61,2.59Zm0-3.9c-.73,0-1.32,.59-1.32,1.3s.59,1.3,1.32,1.3,1.32-.59,1.32-1.3-.59-1.3-1.32-1.3Z"/></g></g><path class="cls-2" d="M39.36,31.47H17.02c-1.04,0-1.88-.84-1.88-1.88V7.48c0-1.04,.84-1.88,1.88-1.88h22.34c1.04,0,1.88,.84,1.88,1.88V29.59c0,1.04-.84,1.88-1.88,1.88ZM17.02,6.89c-.33,0-.59,.27-.59,.59V29.59c0,.33,.26,.59,.59,.59h22.34c.33,0,.59-.26,.59-.59V7.48c0-.33-.26-.59-.59-.59H17.02Z"/></g><g><path class="cls-2" d="M16.54,41.65v1.16h5.08v1.46H9.69v-1.46h5.08v-1.16h-3.4v-4.8h8.57v4.8h-3.4Zm-5.29,3.57h8.76v4.4h-1.76v-2.94h-7v-1.46Zm1.88-5h5.07v-1.95h-5.07v1.95Z"/><path class="cls-2" d="M23.05,37.19h6.72v1.5h-2.42v.83c0,.17,.01,.33,.04,.47s.07,.28,.14,.41c.07,.13,.16,.25,.28,.39s.27,.27,.46,.41c.3,.22,.62,.45,.95,.69s.68,.46,1.04,.69l-.95,1.25c-.63-.41-1.2-.81-1.72-1.19-.3-.21-.53-.4-.71-.55-.17-.15-.27-.27-.3-.34h-.01c-.03,.08-.14,.22-.32,.4-.19,.18-.44,.4-.77,.65-.3,.24-.6,.48-.92,.72-.31,.24-.65,.48-1,.72l-1.04-1.29c.45-.3,.87-.6,1.27-.91,.4-.31,.74-.59,1.04-.85,.24-.21,.43-.46,.57-.72,.14-.27,.2-.57,.2-.92v-.83h-2.53v-1.5Zm1.57,7.46h8.62v4.97h-1.76v-3.47h-6.86v-1.5Zm6.86-3.57h-2.09v-1.5h2.09v-3.14h1.76v7.62h-1.76v-2.98Z"/><path class="cls-2" d="M35.8,37.57h6.94v1.51h-2.52v1.48c0,.27,.01,.52,.04,.73,.03,.22,.08,.43,.15,.62,.07,.2,.17,.39,.3,.59,.13,.2,.3,.41,.52,.63,.3,.33,.62,.66,.97,1.01,.35,.34,.7,.68,1.06,.99l-1.13,1.18c-.3-.28-.6-.57-.9-.86s-.58-.58-.84-.85c-.27-.27-.5-.52-.69-.74-.19-.22-.3-.38-.35-.5h-.03c-.07,.13-.2,.32-.41,.56-.21,.24-.42,.49-.66,.73-.26,.27-.53,.55-.81,.83-.28,.29-.62,.6-1.01,.96l-1.16-1.19c.77-.68,1.46-1.36,2.07-2.03,.21-.23,.38-.45,.52-.64,.14-.2,.25-.4,.34-.6s.14-.42,.18-.65c.03-.23,.05-.49,.05-.78v-1.48h-2.63v-1.51Zm10.33,11.9h-1.78v-13.02h1.78v13.02Z"/></g></svg>