<?xml version="1.0" encoding="UTF-8"?><svg id="_이어_1" xmlns="http://www.w3.org/2000/svg" viewBox="0 0 56.69 56.69"><defs><style>.cls-1{fill:#727171;}</style></defs><g><path class="cls-1" d="M39.8,9.84H16.89c-.45,0-.81-.36-.81-.81s.36-.81,.81-.81h22.9c.45,0,.81,.36,.81,.81s-.36,.81-.81,.81Z"/><path class="cls-1" d="M39.8,19.08H16.89c-.45,0-.81-.36-.81-.81s.36-.81,.81-.81h22.9c.45,0,.81,.36,.81,.81s-.36,.81-.81,.81Z"/><path class="cls-1" d="M39.8,28.32H16.89c-.45,0-.81-.36-.81-.81s.36-.81,.81-.81h22.9c.45,0,.81,.36,.81,.81s-.36,.81-.81,.81Z"/></g><g><path class="cls-1" d="M20.04,41.2c-.05,.12-.16,.27-.33,.45-.17,.18-.38,.36-.62,.56-.3,.24-.61,.49-.92,.75s-.69,.53-1.11,.83l-1.02-1.29c.43-.3,.8-.57,1.11-.82,.31-.25,.63-.51,.95-.78,.35-.31,.61-.62,.76-.95,.15-.33,.22-.7,.22-1.12v-1.58h1.79v1.55c0,.22,.01,.42,.04,.6,.03,.18,.08,.34,.15,.5,.08,.15,.18,.3,.3,.44s.29,.29,.48,.45c.11,.08,.25,.18,.4,.29,.15,.11,.31,.23,.48,.35s.34,.24,.53,.36c.18,.12,.36,.23,.53,.34l-.98,1.22c-.59-.38-1.18-.79-1.76-1.23-.28-.21-.5-.39-.67-.54-.16-.14-.27-.27-.32-.39h-.01Zm6.85,2.81v3.7h-6.45v.97h6.85v1.4h-8.55v-3.7h6.45v-.97h-6.52v-1.4h8.23Zm-1.76-3.49h-2.3v-1.5h2.3v-2.1h1.76v6.5h-1.76v-2.9Z"/><path class="cls-1" d="M29.43,37.72h6.72v1.5h-2.42v.85c0,.17,.01,.32,.04,.46,.02,.14,.07,.28,.14,.41s.16,.26,.28,.38c.12,.13,.27,.26,.46,.4,.3,.22,.62,.45,.95,.69s.68,.46,1.04,.69l-.94,1.25c-.63-.41-1.2-.81-1.72-1.19-.3-.21-.54-.4-.71-.55-.18-.15-.28-.26-.31-.34h-.01c-.03,.08-.14,.22-.32,.4-.19,.18-.44,.4-.77,.65-.3,.24-.6,.48-.92,.72-.31,.24-.65,.48-1,.72l-1.04-1.29c.45-.3,.87-.6,1.27-.91,.4-.31,.74-.59,1.04-.85,.24-.21,.43-.45,.57-.72,.14-.27,.2-.57,.2-.92v-.85h-2.53v-1.5Zm6.16,12.63c-.58,0-1.12-.06-1.61-.17-.5-.11-.92-.28-1.29-.49s-.65-.48-.86-.78c-.21-.31-.31-.66-.31-1.05v-.62c0-.39,.1-.74,.31-1.05s.5-.57,.86-.78,.79-.38,1.29-.49c.49-.11,1.03-.17,1.61-.17s1.12,.06,1.61,.17c.49,.11,.92,.28,1.29,.49s.65,.48,.86,.78,.31,.66,.31,1.05v.62c0,.39-.1,.74-.31,1.05-.21,.31-.5,.57-.86,.78s-.79,.38-1.29,.49c-.5,.11-1.03,.17-1.61,.17Zm0-4.16c-.31,0-.6,.03-.88,.09s-.53,.14-.74,.25-.39,.23-.52,.38c-.13,.15-.2,.3-.2,.47v.34c0,.17,.07,.32,.2,.47s.3,.27,.52,.38,.46,.19,.74,.25,.57,.09,.88,.09,.6-.03,.88-.09c.28-.06,.53-.14,.74-.25s.39-.23,.52-.38,.2-.3,.2-.47v-.34c0-.17-.06-.32-.2-.47-.13-.14-.3-.27-.52-.38s-.46-.19-.74-.25c-.28-.06-.57-.09-.88-.09Zm2.27-4.55h-2.09v-1.5h2.09v-3.21h1.76v7.74h-1.76v-3.04Z"/></g></svg>