<svg id="레이어_1" data-name="레이어 1" xmlns="http://www.w3.org/2000/svg" viewBox="0 0 56.69 56.69"><defs><style>.cls-1{fill:#727171;}</style></defs><path class="cls-1" d="M33.71,34a.73.73,0,0,1-.29-.07.65.65,0,0,1-.35-.58V12.07a.65.65,0,0,1,.26-.52l7-5.08a.65.65,0,0,1,.67,0,.64.64,0,0,1,.36.57V28.27a.63.63,0,0,1-.27.52l-7,5.07A.58.58,0,0,1,33.71,34Zm.65-21.6V32.08L40,27.94V8.26Z"/><path class="cls-1" d="M30,18.32H16A.65.65,0,0,1,16,17H30a.65.65,0,1,1,0,1.29Z"/><path class="cls-1" d="M25.76,22.52a.63.63,0,0,1-.46-.19.65.65,0,0,1,0-.91l3.79-3.75L25.3,13.92a.64.64,0,0,1,.91-.91l4.25,4.2a.68.68,0,0,1,.19.46.66.66,0,0,1-.19.46l-4.25,4.21A.64.64,0,0,1,25.76,22.52Z"/><path class="cls-1" d="M40.67,28.91a.64.64,0,0,1-.64-.64V7.64H20.33v6.65a.65.65,0,0,1-1.29,0V7a.64.64,0,0,1,.64-.64h21a.65.65,0,0,1,.65.64V28.27A.64.64,0,0,1,40.67,28.91Z"/><path class="cls-1" d="M33.7,28.91h-14a.64.64,0,0,1-.64-.64V21a.65.65,0,1,1,1.29,0v6.65H33.7a.64.64,0,0,1,0,1.28Z"/><path class="cls-1" d="M20.91,50.34V48h5.21v-.66H20.86v-.83h2.65v-.77H19.66V44.9h8.72v.85H24.54v.77h2.58v2.31H21.91v.68H27.4v.83Zm3.1-7a.9.9,0,0,1-.4.33,5,5,0,0,1-.62.26l-1.13.36-1.17.31-.27-.82c.38-.09.72-.17,1-.26s.62-.19,1-.31a3.51,3.51,0,0,0,.79-.36.71.71,0,0,0,.3-.51H20.76v-.82h2.75v-.87h1v.87h2.75v.82H24.54a.66.66,0,0,0,.31.51,4.36,4.36,0,0,0,.79.36c.23.08.51.17.83.26s.7.2,1.15.31l-.28.82c-.41-.1-.79-.2-1.16-.31s-.75-.23-1.12-.36a5.93,5.93,0,0,1-.63-.26.88.88,0,0,1-.41-.33Z"/><path class="cls-1" d="M37.35,45.63v.87H33.51v3.77h-1V46.5H28.63v-.87h6.08a11.72,11.72,0,0,0,.23-1.45A12.44,12.44,0,0,0,35,42.81v-.56H29.72v-.9H36v1.22c0,.5,0,1-.07,1.52s-.12,1-.22,1.54Z"/></svg>