<?xml version="1.0" encoding="UTF-8"?><svg id="_이어_1" xmlns="http://www.w3.org/2000/svg" viewBox="0 0 56.69 56.69"><defs><style>.cls-1{fill:#727171;}</style></defs><path class="cls-1" d="M30.57,31.51h-4.45c-.34,0-.63-.26-.66-.59l-.32-2.99c-1.36-.33-2.49-1.19-3.38-2l-2.8,1.24c-.31,.14-.68,.02-.85-.28l-2.23-3.85c-.17-.29-.09-.67,.18-.87l2.43-1.77c-.33-1.16-.29-2.9,0-3.97l-2.43-1.77c-.28-.2-.35-.58-.18-.87l2.23-3.85c.17-.29,.54-.41,.85-.28l2.8,1.25c.9-.8,2.15-1.63,3.37-1.98l.32-3.01c.04-.34,.32-.59,.66-.59h4.45c.34,0,.63,.26,.66,.59l.32,3.05c1.24,.42,2.39,1.09,3.37,1.95l2.8-1.25c.31-.14,.68-.02,.85,.28l2.22,3.85c.17,.29,.09,.67-.18,.87l-2.48,1.81c.13,.66,.2,1.31,.2,1.95s-.07,1.29-.2,1.95l2.48,1.81c.28,.2,.35,.58,.18,.87l-2.22,3.85c-.17,.3-.54,.42-.85,.28l-2.8-1.25c-.99,.86-2.14,1.53-3.37,1.95l-.32,3.05c-.04,.34-.32,.59-.66,.59Zm-3.85-1.33h3.25l.31-2.89c.03-.27,.22-.49,.48-.57,1.33-.39,2.57-1.1,3.58-2.07,.2-.19,.49-.24,.73-.13l2.66,1.18,1.63-2.82-2.35-1.71c-.22-.16-.32-.43-.25-.7,.17-.7,.26-1.39,.26-2.07s-.09-1.37-.26-2.07c-.06-.26,.04-.54,.25-.7l2.35-1.71-1.63-2.82-2.66,1.18c-.25,.11-.54,.06-.73-.13-1.01-.97-2.25-1.68-3.58-2.07-.26-.08-.45-.3-.48-.57l-.31-2.89h-3.25l-.31,2.89c-.03,.29-.25,.53-.54,.58-1.03,.18-2.41,.99-3.51,2.06-.2,.19-.49,.23-.73,.13l-2.66-1.18-1.63,2.82,2.35,1.71c.27,.2,.35,.56,.2,.85-.32,.59-.43,2.96,0,3.85,.14,.29,.06,.64-.2,.83l-2.35,1.71,1.63,2.82,2.66-1.18c.24-.11,.54-.06,.73,.13,.89,.86,2.09,1.86,3.49,2.05,.3,.04,.54,.28,.57,.59l.31,2.89Zm1.63-6.72c-2.79,0-5.06-2.27-5.06-5.05s2.27-5.05,5.06-5.05,5.05,2.27,5.05,5.05-2.27,5.05-5.05,5.05Zm0-8.78c-2.05,0-3.72,1.67-3.72,3.72s1.67,3.72,3.72,3.72,3.72-1.67,3.72-3.72-1.67-3.72-3.72-3.72Z"/><g><path class="cls-1" d="M20.33,41.76c-.05,.12-.16,.27-.33,.45-.17,.18-.38,.36-.62,.56-.3,.24-.61,.49-.92,.75-.32,.26-.69,.53-1.11,.83l-1.02-1.29c.43-.3,.8-.57,1.11-.82,.31-.25,.63-.51,.94-.78,.35-.31,.61-.62,.76-.95,.15-.33,.22-.7,.22-1.12v-1.58h1.79v1.55c0,.22,.01,.42,.04,.6,.03,.18,.08,.34,.15,.5,.07,.15,.17,.3,.3,.44s.29,.29,.48,.45c.11,.08,.25,.18,.4,.29,.15,.11,.31,.23,.48,.35s.34,.24,.52,.36c.18,.12,.36,.23,.52,.34l-.98,1.22c-.59-.38-1.18-.79-1.76-1.23-.28-.21-.5-.39-.67-.54-.16-.14-.27-.27-.31-.39h-.01Zm6.85,2.81v3.7h-6.45v.97h6.85v1.4h-8.55v-3.7h6.45v-.97h-6.52v-1.4h8.23Zm-1.76-3.49h-2.3v-1.5h2.3v-2.1h1.76v6.5h-1.76v-2.9Z"/><path class="cls-1" d="M29.73,38.27h6.72v1.5h-2.42v.85c0,.17,.01,.32,.04,.46,.02,.14,.07,.28,.14,.41,.07,.13,.16,.26,.28,.38s.27,.26,.46,.4c.3,.22,.62,.45,.95,.69s.68,.46,1.04,.69l-.94,1.25c-.62-.41-1.2-.81-1.72-1.19-.3-.21-.54-.4-.71-.55-.18-.15-.28-.26-.31-.34h-.01c-.03,.08-.14,.22-.32,.4-.19,.18-.44,.4-.77,.65-.3,.24-.6,.48-.92,.72-.31,.24-.65,.48-1,.72l-1.04-1.29c.45-.3,.87-.6,1.27-.91,.4-.31,.74-.59,1.04-.85,.24-.21,.43-.45,.57-.72,.14-.27,.2-.57,.2-.92v-.85h-2.53v-1.5Zm6.16,12.63c-.58,0-1.12-.06-1.61-.17-.49-.11-.92-.28-1.29-.49-.36-.21-.65-.48-.86-.78-.21-.31-.31-.66-.31-1.05v-.62c0-.39,.1-.74,.31-1.05s.5-.57,.86-.78c.36-.21,.79-.38,1.29-.49,.49-.11,1.03-.17,1.61-.17s1.12,.06,1.61,.17c.49,.11,.92,.28,1.29,.49,.36,.21,.65,.48,.86,.78s.31,.66,.31,1.05v.62c0,.39-.1,.74-.31,1.05-.21,.31-.5,.57-.86,.78-.36,.21-.79,.38-1.29,.49-.49,.11-1.03,.17-1.61,.17Zm0-4.16c-.31,0-.6,.03-.88,.09-.28,.06-.53,.14-.74,.25-.21,.11-.39,.23-.52,.38-.13,.15-.2,.3-.2,.47v.34c0,.17,.06,.32,.2,.47,.13,.14,.3,.27,.52,.38,.21,.11,.46,.19,.74,.25,.28,.06,.57,.09,.88,.09s.6-.03,.88-.09c.28-.06,.53-.14,.74-.25,.21-.11,.39-.23,.52-.38,.13-.14,.2-.3,.2-.47v-.34c0-.17-.07-.32-.2-.47-.13-.14-.3-.27-.52-.38-.21-.11-.46-.19-.74-.25-.28-.06-.57-.09-.88-.09Zm2.27-4.55h-2.09v-1.5h2.09v-3.21h1.76v7.74h-1.76v-3.04Z"/></g></svg>