<?xml version="1.0" encoding="UTF-8"?><svg id="_이어_1" xmlns="http://www.w3.org/2000/svg" viewBox="0 0 56.69 56.69"><defs><style>.cls-1{fill:#727171;}</style></defs><g><path class="cls-1" d="M20.04,30.99h-1.61c-1.24,0-2.25-1-2.25-2.24v-2.17h1.29v2.17c0,.52,.43,.95,.96,.95h1.61c.53,0,.96-.43,.96-.95v-2.17h1.29v2.17c0,1.23-1.01,2.24-2.25,2.24Z"/><path class="cls-1" d="M37.73,30.99h-1.61c-1.24,0-2.25-1-2.25-2.24v-2.17h1.29v2.17c0,.52,.43,.95,.96,.95h1.61c.53,0,.96-.43,.96-.95v-2.17h1.29v2.17c0,1.23-1.01,2.24-2.25,2.24Z"/><path class="cls-1" d="M37.57,16.22l-1.41-7.39c-.25-1.15-1.31-1.99-2.51-1.99h-10.88c-1.21,0-2.26,.85-2.51,2.01l-1.41,7.37-1.27-.24,1.41-7.39c.38-1.77,1.97-3.04,3.78-3.04h10.88c1.81,0,3.39,1.27,3.77,3.03l1.41,7.4-1.27,.24Z"/><path class="cls-1" d="M39.47,27.54H16.96c-1.24,0-2.25-1-2.25-2.24v-7.96c0-1.23,1.01-2.24,2.25-2.24h22.51c1.24,0,2.25,1,2.25,2.24v7.96c0,1.23-1.01,2.24-2.25,2.24Zm-22.51-11.15c-.53,0-.96,.43-.96,.95v7.96c0,.52,.43,.95,.96,.95h22.51c.53,0,.96-.43,.96-.95v-7.96c0-.52-.43-.95-.96-.95H16.96Zm17.82,7.96c-1.68,0-3.06-1.36-3.06-3.03s1.37-3.03,3.06-3.03,3.06,1.36,3.06,3.03-1.37,3.03-3.06,3.03Zm0-4.78c-.97,0-1.77,.78-1.77,1.74s.79,1.74,1.77,1.74,1.77-.78,1.77-1.74-.79-1.74-1.77-1.74Zm-13.66,4.78c-1.68,0-3.06-1.36-3.06-3.03s1.37-3.03,3.06-3.03,3.06,1.36,3.06,3.03-1.37,3.03-3.06,3.03Zm0-4.78c-.97,0-1.77,.78-1.77,1.74s.79,1.74,1.77,1.74,1.77-.78,1.77-1.74-.79-1.74-1.77-1.74Z"/></g><g><path class="cls-1" d="M2.72,38.22h2.74v-1.72h1.79v1.72h2.62v1.51h-2.62v1.04c0,.27,.02,.52,.06,.74,.04,.22,.1,.44,.18,.64,.08,.2,.18,.39,.31,.58,.13,.19,.29,.38,.48,.59,.12,.14,.26,.29,.43,.45,.16,.16,.33,.33,.51,.5,.18,.17,.36,.34,.54,.52,.18,.17,.36,.34,.54,.5l-1.13,1.18c-.3-.28-.6-.57-.9-.86-.3-.29-.58-.58-.84-.85-.28-.29-.51-.54-.69-.75-.18-.21-.3-.37-.34-.48h-.03c-.07,.13-.2,.32-.41,.56-.21,.24-.42,.49-.66,.73-.26,.27-.53,.55-.81,.83-.28,.29-.62,.6-1.01,.96l-1.16-1.19c.77-.68,1.46-1.36,2.07-2.03,.21-.23,.38-.45,.52-.64,.14-.2,.25-.39,.34-.6,.08-.2,.14-.41,.17-.63,.03-.22,.05-.47,.05-.75v-1.04H2.72v-1.51Zm10.05,2.87h1.79v1.54h-1.79v6.8h-1.78v-13.02h1.78v4.68Z"/><path class="cls-1" d="M17.32,42.36c.98,0,1.89-.01,2.73-.04,.84-.02,1.69-.08,2.55-.16l.15,1.46c-.4,.05-.83,.08-1.29,.11-.46,.03-.98,.05-1.55,.06-.57,.01-1.21,.02-1.92,.03s-1.5,0-2.4,0v-4.1h4.19v-1.22h-4.19v-1.47h5.92v4.1h-4.19v1.22Zm4.12,7.48c-.6,0-1.14-.06-1.63-.17-.49-.11-.91-.27-1.26-.48-.35-.21-.62-.46-.82-.76-.2-.3-.29-.63-.29-.99v-.56c0-.36,.1-.7,.29-.99,.2-.3,.47-.55,.82-.76,.35-.21,.77-.36,1.26-.48,.49-.11,1.03-.17,1.63-.17s1.14,.06,1.63,.17c.49,.11,.91,.27,1.26,.48,.35,.21,.62,.46,.82,.76,.2,.3,.29,.63,.29,.99v.56c0,.36-.1,.7-.29,.99-.2,.3-.47,.55-.82,.76-.35,.21-.77,.36-1.26,.48-.49,.11-1.03,.17-1.63,.17Zm0-3.91c-.35,0-.67,.03-.95,.1-.28,.07-.52,.15-.71,.25-.2,.1-.35,.22-.46,.34s-.16,.25-.16,.38v.31c0,.13,.05,.26,.16,.39s.26,.25,.46,.35c.2,.1,.43,.18,.71,.25,.28,.06,.6,.09,.95,.09s.67-.03,.95-.09c.28-.06,.52-.14,.71-.25,.2-.1,.35-.22,.46-.35s.16-.26,.16-.39v-.31c0-.13-.05-.26-.16-.38s-.26-.24-.46-.34c-.2-.1-.43-.19-.71-.25-.28-.07-.6-.1-.95-.1Zm3.96-7.64h1.68v1.51h-1.68v1.08h1.68v1.51h-1.68v1.95h-1.75v-7.92h1.75v1.88Z"/><path class="cls-1" d="M34.75,37v1.44h-4.58v.92h4.33v1.44h-4.33v.92c.98,0,1.89-.01,2.73-.04,.84-.02,1.69-.08,2.55-.16l.15,1.43c-.4,.05-.83,.08-1.29,.11s-.98,.05-1.55,.06c-.57,.01-1.21,.02-1.92,.03-.71,0-1.5,0-2.4,0v-6.17h6.31Zm3.5,6.89v5.57h-8.09v-5.57h1.75v1.39h4.59v-1.39h1.75Zm-1.75,4.12v-1.27h-4.59v1.27h4.59Zm1.75-8.97h1.71v1.54h-1.71v2.73h-1.76v-6.89h1.76v2.62Z"/><path class="cls-1" d="M52.59,42.4v1.46h-11.93v-1.46h11.93Zm-5.95-2.76c-.07,.11-.22,.25-.47,.42s-.64,.37-1.17,.62c-.42,.2-.86,.39-1.32,.59-.46,.2-.95,.4-1.48,.62l-.67-1.41c.48-.19,.97-.39,1.48-.61,.51-.22,.99-.44,1.43-.65,.43-.21,.75-.44,.97-.69,.21-.24,.32-.58,.32-1.02v-.95h1.79v.95c0,.43,.11,.77,.32,1.01,.21,.25,.53,.48,.96,.69,.45,.21,.93,.43,1.43,.65,.51,.22,1,.42,1.48,.61l-.66,1.39c-.53-.21-1.03-.42-1.49-.62-.46-.2-.9-.39-1.31-.58-.52-.24-.91-.44-1.15-.6-.24-.16-.39-.29-.45-.41h-.01Zm-.01,10.18c-.57,0-1.11-.05-1.62-.15-.51-.1-.95-.25-1.34-.44-.38-.2-.69-.45-.91-.75-.22-.3-.34-.66-.34-1.07v-.42c0-.41,.11-.77,.34-1.07,.22-.3,.53-.55,.91-.75,.38-.2,.83-.34,1.34-.44,.51-.1,1.05-.15,1.62-.15s1.11,.05,1.62,.15c.51,.1,.95,.25,1.34,.44,.38,.2,.69,.45,.91,.75,.22,.3,.34,.66,.34,1.07v.42c0,.41-.11,.77-.34,1.07-.22,.3-.53,.55-.91,.75-.38,.2-.83,.34-1.34,.44-.51,.1-1.05,.15-1.62,.15Zm0-3.81c-.31,0-.61,.03-.9,.08-.29,.05-.56,.12-.78,.22-.23,.09-.41,.21-.55,.34-.14,.13-.21,.29-.21,.46v.2c0,.17,.07,.32,.21,.46,.14,.14,.32,.25,.55,.34,.23,.09,.49,.17,.78,.22,.29,.05,.59,.08,.9,.08s.61-.03,.9-.08c.29-.05,.55-.12,.78-.22,.23-.09,.41-.21,.55-.34,.14-.13,.21-.29,.21-.46v-.2c0-.17-.07-.32-.21-.46-.14-.14-.33-.25-.55-.34-.23-.09-.49-.17-.78-.22-.29-.05-.6-.08-.9-.08Z"/></g></svg>